<svg width="36" height="36" viewBox="0 0 36 36" fill="none" xmlns="http://www.w3.org/2000/svg">
<path d="M17.9412 34.8824C27.2975 34.8824 34.8824 27.2975 34.8824 17.9412C34.8824 8.58482 27.2975 1 17.9412 1C8.58482 1 1 8.58482 1 17.9412C1 27.2975 8.58482 34.8824 17.9412 34.8824Z" stroke="white" stroke-linecap="round" stroke-linejoin="round"/>
<rect x="6.5" y="11.5" width="23" height="14" rx="4.5" stroke="white"/>
<path d="M9.89414 24C9.78414 24 9.69914 23.97 9.63914 23.91C9.57914 23.84 9.54914 23.755 9.54914 23.655V13.86C9.54914 13.75 9.57914 13.665 9.63914 13.605C9.69914 13.535 9.78414 13.5 9.89414 13.5H16.0891C16.1991 13.5 16.2841 13.535 16.3441 13.605C16.4041 13.665 16.4341 13.75 16.4341 13.86V14.43C16.4341 14.54 16.4041 14.625 16.3441 14.685C16.2841 14.745 16.1991 14.775 16.0891 14.775H10.9891V18.06H15.7591C15.8691 18.06 15.9541 18.095 16.0141 18.165C16.0741 18.225 16.1041 18.31 16.1041 18.42V18.975C16.1041 19.075 16.0741 19.16 16.0141 19.23C15.9541 19.29 15.8691 19.32 15.7591 19.32H10.9891V22.725H16.2091C16.3191 22.725 16.4041 22.755 16.4641 22.815C16.5241 22.875 16.5541 22.96 16.5541 23.07V23.655C16.5541 23.755 16.5241 23.84 16.4641 23.91C16.4041 23.97 16.3191 24 16.2091 24H9.89414ZM18.9908 24C18.8808 24 18.7958 23.97 18.7358 23.91C18.6758 23.84 18.6458 23.755 18.6458 23.655V13.86C18.6458 13.75 18.6758 13.665 18.7358 13.605C18.7958 13.535 18.8808 13.5 18.9908 13.5H19.6808C19.8008 13.5 19.8908 13.53 19.9508 13.59C20.0108 13.64 20.0458 13.68 20.0558 13.71L25.0358 21.36V13.86C25.0358 13.75 25.0658 13.665 25.1258 13.605C25.1858 13.535 25.2708 13.5 25.3808 13.5H26.1008C26.2108 13.5 26.2958 13.535 26.3558 13.605C26.4258 13.665 26.4608 13.75 26.4608 13.86V23.64C26.4608 23.74 26.4258 23.825 26.3558 23.895C26.2958 23.965 26.2158 24 26.1158 24H25.3958C25.2858 24 25.2008 23.97 25.1408 23.91C25.0908 23.85 25.0558 23.81 25.0358 23.79L20.0708 16.215V23.655C20.0708 23.755 20.0358 23.84 19.9658 23.91C19.9058 23.97 19.8208 24 19.7108 24H18.9908Z" fill="white"/>
</svg>
