<svg width="26" height="26" viewBox="0 0 26 26" fill="none" xmlns="http://www.w3.org/2000/svg">
<path d="M13.2353 25.4706C19.9927 25.4706 25.4706 19.9927 25.4706 13.2353C25.4706 6.47793 19.9927 1 13.2353 1C6.47793 1 1 6.47793 1 13.2353C1 19.9927 6.47793 25.4706 13.2353 25.4706Z" stroke="white" stroke-linecap="round" stroke-linejoin="round"/>
<rect x="4.5" y="8.5" width="17" height="10" rx="2.5" stroke="white"/>
<path d="M7.31777 17C7.24444 17 7.18777 16.98 7.14777 16.94C7.10777 16.8933 7.08777 16.8367 7.08777 16.77V10.24C7.08777 10.1667 7.10777 10.11 7.14777 10.07C7.18777 10.0233 7.24444 10 7.31777 10H9.75777C10.5111 10 11.1078 10.1767 11.5478 10.53C11.9878 10.8833 12.2078 11.4067 12.2078 12.1C12.2078 12.6133 12.0778 13.0333 11.8178 13.36C11.5644 13.68 11.2178 13.9033 10.7778 14.03L12.3178 16.69C12.3378 16.73 12.3478 16.7667 12.3478 16.8C12.3478 16.8533 12.3244 16.9 12.2778 16.94C12.2378 16.98 12.1911 17 12.1378 17H11.6578C11.5444 17 11.4611 16.97 11.4078 16.91C11.3544 16.85 11.3078 16.79 11.2678 16.73L9.81777 14.19H8.06777V16.77C8.06777 16.8367 8.04444 16.8933 7.99777 16.94C7.95777 16.98 7.90111 17 7.82777 17H7.31777ZM8.06777 13.34H9.71777C10.2178 13.34 10.5911 13.2367 10.8378 13.03C11.0844 12.8167 11.2078 12.5033 11.2078 12.09C11.2078 11.6833 11.0844 11.3733 10.8378 11.16C10.5978 10.9467 10.2244 10.84 9.71777 10.84H8.06777V13.34ZM16.2805 17.1C15.7205 17.1 15.2372 17 14.8305 16.8C14.4305 16.6 14.1205 16.2967 13.9005 15.89C13.6872 15.4767 13.5805 14.9467 13.5805 14.3V10.24C13.5805 10.1667 13.6005 10.11 13.6405 10.07C13.6805 10.0233 13.7372 10 13.8105 10H14.3205C14.3938 10 14.4505 10.0233 14.4905 10.07C14.5372 10.11 14.5605 10.1667 14.5605 10.24V14.32C14.5605 14.9733 14.7138 15.4567 15.0205 15.77C15.3272 16.0833 15.7472 16.24 16.2805 16.24C16.8072 16.24 17.2238 16.0833 17.5305 15.77C17.8438 15.4567 18.0005 14.9733 18.0005 14.32V10.24C18.0005 10.1667 18.0205 10.11 18.0605 10.07C18.1072 10.0233 18.1638 10 18.2305 10H18.7505C18.8172 10 18.8705 10.0233 18.9105 10.07C18.9572 10.11 18.9805 10.1667 18.9805 10.24V14.3C18.9805 14.9467 18.8705 15.4767 18.6505 15.89C18.4372 16.2967 18.1305 16.6 17.7305 16.8C17.3305 17 16.8472 17.1 16.2805 17.1Z" fill="white"/>
</svg>
