<svg width="32" height="32" viewBox="0 0 32 32" fill="none" xmlns="http://www.w3.org/2000/svg">
<path fill-rule="evenodd" clip-rule="evenodd" d="M6.92231 18.6135C6.98979 18.6364 7.0579 18.6524 7.12595 18.6623C7.20016 18.8368 7.29604 19.0623 7.4079 19.3261C7.68088 19.9699 8.04871 20.8408 8.42839 21.7491C9.20268 23.6018 9.98372 25.5114 10.1562 26.0581C10.3698 26.7338 10.5955 27.1932 10.8419 27.507C10.9693 27.6691 11.1166 27.8107 11.2891 27.918C11.3759 27.9719 11.4675 28.0162 11.5632 28.0492C11.5675 28.0507 11.5717 28.0521 11.5759 28.0535C12.0693 28.2397 12.5191 28.1622 12.8007 28.0674C12.9513 28.0165 13.0733 27.9553 13.1597 27.9056C13.2037 27.8802 13.241 27.8566 13.2706 27.8366L13.2776 27.8319L17.6347 25.1148L22.6676 28.9732C22.7417 29.0301 22.8228 29.0779 22.9086 29.1154C23.5132 29.3792 24.0987 29.4712 24.6494 29.396C25.1993 29.3209 25.6358 29.0899 25.9608 28.8299C26.279 28.5753 26.4948 28.2901 26.6291 28.0783C26.6977 27.9701 26.7492 27.8743 26.7855 27.8011C26.8037 27.7643 26.8184 27.7325 26.8298 27.7071L26.8443 27.6735L26.8498 27.6602L26.8521 27.6547L26.8531 27.652L26.8541 27.6496C26.8805 27.5834 26.9009 27.515 26.9147 27.4451L31.5092 4.28089C31.5239 4.20681 31.5313 4.13146 31.5313 4.05593C31.5313 3.37758 31.2756 2.73255 30.6747 2.34114C30.161 2.00659 29.5888 1.9922 29.2272 2.01964C28.837 2.04925 28.4767 2.14556 28.235 2.2225C28.1092 2.26256 28.0036 2.30119 27.9276 2.33067C27.8894 2.34548 27.8581 2.3582 27.8346 2.3679L27.8172 2.37527L2.05019 12.4833L2.04686 12.4845C2.03044 12.4905 2.00935 12.4984 1.9843 12.5081C1.93441 12.5275 1.86755 12.5548 1.78947 12.5903C1.63718 12.6593 1.42354 12.7671 1.2043 12.9172C0.854045 13.1571 0.0485397 13.814 0.184176 14.8983C0.292385 15.7633 0.884971 16.2946 1.24601 16.55C1.44426 16.6903 1.6326 16.7905 1.76976 16.8559C1.83339 16.8861 1.96551 16.9398 2.02283 16.9632L2.03731 16.9691L6.92231 18.6135ZM28.7189 4.50462L28.7154 4.50619C28.7024 4.51177 28.6897 4.51711 28.6765 4.52222L2.8783 14.6425C2.86483 14.6478 2.85126 14.6529 2.8376 14.6576L2.82325 14.663C2.80674 14.6695 2.77895 14.6808 2.74408 14.6965C2.7243 14.7054 2.70366 14.7153 2.68262 14.7258C2.71152 14.7421 2.7392 14.7561 2.76378 14.7679C2.78739 14.7791 2.80539 14.7868 2.81525 14.7908L7.66013 16.4219C7.74881 16.4518 7.83147 16.4913 7.90735 16.5391L23.9049 7.1742L23.9199 7.16535C23.9315 7.15846 23.9469 7.14961 23.9652 7.13923C24.0016 7.11865 24.0516 7.09126 24.1111 7.06096C24.2221 7.00446 24.3998 6.92058 24.5999 6.85873C24.7391 6.81567 25.15 6.69436 25.5941 6.83682C25.8682 6.92474 26.1521 7.11377 26.3368 7.43397C26.4283 7.59305 26.4772 7.75286 26.5009 7.89915C26.5638 8.1296 26.5538 8.35717 26.5046 8.55362C26.3986 8.97682 26.1013 9.30693 25.8308 9.55942C25.5989 9.77589 22.5998 12.6678 19.6411 15.5227C18.1656 16.9462 16.7054 18.3559 15.6137 19.4095L14.8968 20.1017L23.9493 27.042C24.157 27.1163 24.2797 27.1126 24.3365 27.1047C24.4041 27.0955 24.4595 27.0694 24.5161 27.0243C24.5793 26.9737 24.6346 26.9052 24.6759 26.84L24.6776 26.8374L29.1338 4.37074C29.0677 4.38663 29.0008 4.40557 28.9363 4.42607C28.8634 4.4493 28.8031 4.47144 28.7633 4.4869C28.7435 4.49457 28.7293 4.50038 28.7216 4.50359L28.7189 4.50462ZM15.6744 23.6119L13.8684 22.2272L13.4309 25.011L15.6744 23.6119ZM12.2116 19.4797L14.0076 17.7457C15.0992 16.692 16.5598 15.2823 18.0355 13.8584L19.5348 12.412L9.483 18.2963L9.53693 18.4235C9.81088 19.0696 10.1804 19.9442 10.562 20.8574C10.8475 21.5402 11.1459 22.2593 11.4177 22.925L11.8541 20.1494C11.8961 19.8817 12.0269 19.6502 12.2116 19.4797Z" fill="white"/>
</svg>
