<svg width="32" height="28" viewBox="0 0 32 28" fill="none" xmlns="http://www.w3.org/2000/svg">
<path fill-rule="evenodd" clip-rule="evenodd" d="M6.92231 16.6136C6.98979 16.6364 7.0579 16.6524 7.12595 16.6623C7.20016 16.8368 7.29604 17.0623 7.4079 17.3261C7.68088 17.9699 8.04871 18.8408 8.42839 19.7491C9.20268 21.6018 9.98372 23.5114 10.1562 24.0581C10.3698 24.7338 10.5955 25.1932 10.8419 25.507C10.9693 25.6691 11.1166 25.8107 11.2891 25.918C11.3759 25.9719 11.4675 26.0162 11.5632 26.0492C11.5675 26.0507 11.5717 26.0521 11.5759 26.0535C12.0693 26.2397 12.5191 26.1622 12.8007 26.0674C12.9513 26.0165 13.0733 25.9553 13.1597 25.9056C13.2037 25.8802 13.241 25.8566 13.2706 25.8366L13.2776 25.8319L17.6347 23.1148L22.6676 26.9732C22.7418 27.0301 22.8228 27.0779 22.9086 27.1154C23.5132 27.3792 24.0987 27.4712 24.6494 27.396C25.1993 27.3209 25.6358 27.0899 25.9608 26.8299C26.279 26.5753 26.4948 26.2901 26.6291 26.0783C26.6977 25.9701 26.7492 25.8743 26.7855 25.8011C26.8037 25.7643 26.8184 25.7325 26.8298 25.7071L26.8443 25.6735L26.8498 25.6602L26.8521 25.6547L26.8531 25.652L26.8541 25.6496C26.8805 25.5834 26.9009 25.515 26.9147 25.4451L31.5092 2.28089C31.5239 2.20681 31.5313 2.13146 31.5313 2.05593C31.5313 1.37758 31.2756 0.73255 30.6747 0.341136C30.161 0.00659449 29.5888 -0.00780463 29.2272 0.019637C28.837 0.0492524 28.4767 0.14556 28.235 0.222505C28.1092 0.262557 28.0036 0.301192 27.9276 0.330668C27.8894 0.345484 27.8581 0.358202 27.8346 0.367899L27.8172 0.375269L2.05019 10.4833L2.04686 10.4845C2.03044 10.4905 2.00935 10.4984 1.9843 10.5081C1.93441 10.5275 1.86755 10.5548 1.78947 10.5903C1.63718 10.6593 1.42354 10.7671 1.2043 10.9172C0.854045 11.1571 0.0485397 11.814 0.184176 12.8983C0.292385 13.7633 0.884971 14.2946 1.24601 14.55C1.44426 14.6903 1.6326 14.7905 1.76976 14.8559C1.83339 14.8861 1.96551 14.9398 2.02283 14.9632L2.03731 14.9691L6.92231 16.6136ZM28.7189 2.50462L28.7154 2.50619C28.7024 2.51177 28.6897 2.51711 28.6765 2.52222L2.8783 12.6425C2.86483 12.6478 2.85126 12.6529 2.8376 12.6576L2.82325 12.663C2.80674 12.6695 2.77895 12.6808 2.74408 12.6965C2.7243 12.7054 2.70366 12.7153 2.68262 12.7258C2.71152 12.7421 2.7392 12.7561 2.76378 12.7679C2.78739 12.7791 2.80539 12.7868 2.81525 12.7908L7.66013 14.4219C7.74881 14.4518 7.83147 14.4913 7.90735 14.5391L23.9049 5.1742L23.9199 5.16535C23.9315 5.15846 23.9469 5.14961 23.9652 5.13923C24.0016 5.11865 24.0515 5.09126 24.1111 5.06096C24.2221 5.00446 24.3998 4.92058 24.5999 4.85873C24.7391 4.81567 25.15 4.69436 25.5941 4.83682C25.8682 4.92474 26.1521 5.11377 26.3368 5.43397C26.4283 5.59305 26.4772 5.75286 26.5009 5.89915C26.5638 6.1296 26.5538 6.35717 26.5046 6.55362C26.3986 6.97682 26.1013 7.30693 25.8308 7.55942C25.5989 7.77589 22.5998 10.6678 19.6411 13.5227C18.1656 14.9462 16.7054 16.3559 15.6137 17.4095L14.8968 18.1017L23.9493 25.042C24.157 25.1163 24.2797 25.1126 24.3365 25.1047C24.4041 25.0955 24.4595 25.0694 24.5161 25.0243C24.5793 24.9737 24.6346 24.9052 24.6759 24.84L24.6776 24.8374L29.1338 2.37074C29.0677 2.38663 29.0008 2.40557 28.9363 2.42607C28.8634 2.4493 28.8031 2.47144 28.7633 2.4869C28.7435 2.49457 28.7293 2.50038 28.7216 2.50359L28.7189 2.50462ZM15.6744 21.6119L13.8684 20.2272L13.4309 23.011L15.6744 21.6119ZM12.2116 17.4797L14.0076 15.7457C15.0992 14.692 16.5598 13.2823 18.0355 11.8584L19.5348 10.412L9.483 16.2963L9.53693 16.4235C9.81088 17.0696 10.1804 17.9442 10.562 18.8574C10.8475 19.5402 11.1459 20.2593 11.4177 20.925L11.8541 18.1494C11.8961 17.8817 12.0269 17.6502 12.2116 17.4797Z" fill="white"/>
</svg>
