<svg width="32" height="32" viewBox="0 0 32 32" fill="none" xmlns="http://www.w3.org/2000/svg">
<path fill-rule="evenodd" clip-rule="evenodd" d="M26.6717 5.38833C25.2856 3.99314 23.6364 2.88686 21.8198 2.13358C20.0031 1.3803 18.055 0.995002 16.0883 1C7.84167 1 1.12833 7.71167 1.125 15.9617C1.125 18.5983 1.81333 21.1717 3.12167 23.4417L1 31.1933L8.93167 29.1117C11.1257 30.306 13.5837 30.9322 16.0817 30.9333H16.0883C24.3333 30.9333 31.0467 24.2217 31.05 15.9717C31.0557 14.0058 30.6716 12.0583 29.9201 10.2418C29.1686 8.42521 28.0645 6.77562 26.6717 5.38833ZM16.0883 28.4083H16.0833C13.8559 28.4086 11.6694 27.8093 9.75333 26.6733L9.3 26.4033L4.59333 27.6383L5.84833 23.05L5.55333 22.58C4.30798 20.5974 3.64872 18.303 3.65167 15.9617C3.655 9.105 9.23333 3.52667 16.0933 3.52667C17.7271 3.52304 19.3453 3.84347 20.8544 4.46942C22.3635 5.09537 23.7335 6.0144 24.885 7.17333C26.0427 8.32674 26.9603 9.69816 27.5848 11.2083C28.2093 12.7185 28.5283 14.3375 28.5233 15.9717C28.52 22.8283 22.9417 28.4083 16.0883 28.4083ZM22.91 19.0933C22.535 18.905 20.6983 18.0017 20.355 17.8767C20.0133 17.7517 19.765 17.69 19.515 18.0633C19.265 18.4367 18.5483 19.2783 18.33 19.5283C18.1117 19.7783 17.8933 19.8083 17.52 19.6217C17.1467 19.435 15.9417 19.04 14.5133 17.7667C13.4017 16.775 12.6517 15.5517 12.4333 15.1767C12.215 14.8017 12.41 14.6 12.5983 14.4133C12.7667 14.2467 12.9717 13.9767 13.1583 13.7583C13.345 13.54 13.4067 13.385 13.5317 13.135C13.6567 12.885 13.595 12.6667 13.5 12.48C13.4067 12.2917 12.6583 10.4517 12.3467 9.70333C12.045 8.97833 11.7367 9.075 11.5067 9.065C11.2685 9.05526 11.0301 9.05081 10.7917 9.05167C10.6021 9.0565 10.4156 9.10044 10.2438 9.18075C10.072 9.26105 9.91862 9.37598 9.79333 9.51833C9.45 9.89333 8.485 10.7967 8.485 12.6367C8.485 14.4767 9.825 16.255 10.0117 16.505C10.1983 16.755 12.6483 20.53 16.3983 22.15C17.2917 22.535 17.9883 22.765 18.53 22.9383C19.425 23.2233 20.24 23.1817 20.885 23.0867C21.6033 22.98 23.0967 22.1833 23.4083 21.31C23.72 20.4367 23.72 19.6883 23.6267 19.5317C23.5333 19.375 23.2817 19.28 22.91 19.0933Z" fill="white"/>
</svg>
