<svg width="50" height="50" viewBox="0 0 50 50" fill="none" xmlns="http://www.w3.org/2000/svg">
<path d="M39.3263 23.9021C36.5981 17.5625 34.0224 11.5735 38.6305 1.78407C38.9239 1.15909 38.6564 0.414094 38.0314 0.119962C37.4065 -0.174169 36.6615 0.0958418 36.3673 0.719064C31.2817 11.5268 34.2032 18.3199 37.0289 24.8904C37.1497 25.1703 37.2681 25.4495 37.3881 25.7295C35.2482 27.3778 30.6667 28.7502 24.9995 28.7502C19.3281 28.7502 14.7508 27.3761 12.6126 25.7262C12.7317 25.4479 12.8501 25.1703 12.9701 24.8904C15.7958 18.3199 18.7165 11.5268 13.6317 0.719064C13.3367 0.094963 12.5926 -0.175927 11.9676 0.119962C11.3426 0.414094 11.0751 1.15909 11.3685 1.78407C15.9767 11.5736 13.401 17.5625 10.6744 23.9021C7.71783 30.7776 4.66051 37.8873 11.4227 49.3833C11.656 49.78 12.0735 50 12.5018 50C12.7168 50 12.9351 49.945 13.1343 49.8276C13.73 49.4776 13.9276 48.7109 13.5784 48.116C9.74189 41.593 9.36358 36.7124 10.3136 32.3543C17.534 34.375 22.733 41.4139 23.7504 42.8846V48.7494C23.7504 49.4402 24.3096 49.9993 25.0004 49.9993C25.6912 49.9993 26.2504 49.4402 26.2504 48.7494V42.8822C27.3044 41.3606 32.485 34.3593 39.6856 32.3477C40.6363 36.7083 40.2606 41.5897 36.4224 48.1161C36.0733 48.7102 36.2707 49.4769 36.8665 49.8277C37.0656 49.9451 37.284 50.0001 37.499 50.0001C37.9273 50.0001 38.3448 49.7801 38.5781 49.3834C45.3402 37.8873 42.2829 30.7785 39.3263 23.9021ZM24.9995 40.3497C22.9205 37.609 17.8724 31.8618 10.9768 29.9427C11.1793 29.3236 11.4043 28.7119 11.6401 28.1029C14.5183 30.0286 19.3181 31.2502 25.0003 31.2502C30.6759 31.2502 35.4823 30.0353 38.3646 28.1146C38.5988 28.7195 38.8221 29.3278 39.0229 29.9428C32.1266 31.8617 27.0786 37.609 24.9995 40.3497Z" fill="#EB6FFF"/>
<path d="M24.999 23.7494C25.6893 23.7494 26.2489 23.1898 26.2489 22.4995C26.2489 21.8091 25.6893 21.2495 24.999 21.2495C24.3086 21.2495 23.749 21.8091 23.749 22.4995C23.749 23.1898 24.3086 23.7494 24.999 23.7494Z" fill="#EB6FFF"/>
<path d="M10.8838 14.1174L7.13405 10.3677C6.64579 9.8794 5.85499 9.8794 5.36663 10.3677C4.87836 10.8559 4.87836 11.6467 5.36663 12.1351L6.9824 13.7509H1.25094C0.560139 13.7509 0.000976562 14.31 0.000976562 15.0008C0.000976562 15.6916 0.560139 16.2508 1.25094 16.2508H6.98318L5.36663 17.8673C4.87836 18.3556 4.87836 19.1464 5.36663 19.6348C5.61076 19.8789 5.93077 20.0006 6.25078 20.0006C6.57079 20.0006 6.8907 19.8789 7.13493 19.6348L10.8847 15.885C11.3721 15.3965 11.3721 14.6057 10.8838 14.1174Z" fill="#EB6FFF"/>
<path d="M48.7489 13.7509H43.0167L44.6324 12.1351C45.1207 11.6468 45.1207 10.856 44.6324 10.3677C44.1442 9.8794 43.3534 9.8794 42.865 10.3677L39.1152 14.1174C38.627 14.6057 38.627 15.3965 39.1152 15.8849L42.865 19.6347C43.1091 19.8788 43.4292 20.0005 43.7492 20.0005C44.0692 20.0005 44.3892 19.8788 44.6333 19.6347C45.1216 19.1464 45.1216 18.3556 44.6333 17.8672L43.0175 16.2515H48.7498C49.4406 16.2515 49.9997 15.6923 49.9997 15.0015C49.9997 14.3107 49.4397 13.7509 48.7489 13.7509Z" fill="#EB6FFF"/>
</svg>
