<svg width="75" height="76" viewBox="0 0 75 76" fill="none" xmlns="http://www.w3.org/2000/svg">
<path d="M63.4333 63.3819C56.4227 56.9126 47.2644 53.2691 37.7256 53.1546C28.1869 53.04 18.9438 56.4625 11.7798 62.7615L8.53809 59.0834C16.6108 51.9828 27.0272 48.1236 37.7776 48.2503C48.528 48.3771 58.8505 52.4809 66.7535 59.7699L63.4333 63.3819Z" fill="#EB6FFF"/>
<path d="M37.2599 21.4682C39.6654 21.4682 42.0169 22.1815 44.017 23.5179C46.0171 24.8544 47.576 26.7539 48.4966 28.9763C49.4171 31.1987 49.6579 33.6441 49.1886 36.0034C48.7193 38.3627 47.561 40.5298 45.8601 42.2307C44.1591 43.9317 41.992 45.0901 39.6327 45.5593C37.2734 46.0286 34.8281 45.7878 32.6057 44.8672C30.3833 43.9467 28.4837 42.3878 27.1472 40.3877C25.8108 38.3876 25.0976 36.0361 25.0976 33.6306C25.1015 30.4061 26.384 27.3148 28.6641 25.0348C30.9442 22.7547 34.0354 21.4721 37.2599 21.4682ZM37.2599 16.564C33.8845 16.564 30.5848 17.5649 27.7782 19.4402C24.9716 21.3155 22.7842 23.981 21.4925 27.0995C20.2007 30.218 19.8628 33.6496 20.5213 36.9602C21.1798 40.2708 22.8052 43.3117 25.192 45.6985C27.5788 48.0853 30.6199 49.7108 33.9305 50.3693C37.2411 51.0278 40.6726 50.6899 43.7911 49.3981C46.9097 48.1064 49.5751 45.9189 51.4504 43.1123C53.3257 40.3057 54.3266 37.0061 54.3266 33.6306C54.3266 29.1043 52.5284 24.7633 49.3278 21.5627C46.1272 18.3621 41.7863 16.564 37.2599 16.564Z" fill="#EB6FFF"/>
<path d="M37.5 4.91153C43.9469 4.91153 50.2489 6.82325 55.6093 10.4049C60.9696 13.9866 65.1475 19.0774 67.6146 25.0335C70.0817 30.9896 70.7271 37.5435 69.4694 43.8665C68.2117 50.1894 65.1072 55.9975 60.5486 60.5561C55.99 65.1147 50.1821 68.2191 43.8591 69.4768C37.5361 70.7345 30.9822 70.089 25.0261 67.6219C19.07 65.1548 13.9793 60.977 10.3976 55.6166C6.81591 50.2563 4.90415 43.9542 4.90415 37.5073C4.91389 28.8654 8.35123 20.5802 14.462 14.4694C20.5728 8.35861 28.8581 4.92126 37.5 4.91153ZM37.5 0.00732422C30.0832 0.00732422 22.833 2.20669 16.6661 6.32724C10.4993 10.4478 5.69278 16.3045 2.8545 23.1567C0.0162111 30.0089 -0.726364 37.5489 0.720582 44.8232C2.16753 52.0975 5.73905 58.7794 10.9835 64.0239C16.228 69.2683 22.9098 72.8399 30.1841 74.2868C37.4584 75.7337 44.9984 74.9911 51.8506 72.1528C58.7028 69.3145 64.5595 64.5081 68.6801 58.3412C72.8006 52.1744 74.9999 44.9241 74.9999 37.5073C74.9999 27.5617 71.0491 18.0234 64.0165 10.9908C56.9839 3.95821 47.4456 0.00732422 37.5 0.00732422Z" fill="#EB6FFF"/>
</svg>
