<svg width="75" height="57" viewBox="0 0 75 57" fill="none" xmlns="http://www.w3.org/2000/svg">
<path d="M1.11241 23.1217L12.3058 28.5137V37.4895C12.3058 38.2444 12.7382 38.9326 13.4183 39.2602L34.8322 49.5754C35.0982 49.7034 35.3897 49.7699 35.6852 49.7699H39.2835C39.579 49.7699 39.8703 49.7034 40.1367 49.5754L61.4913 39.2885C61.9053 39.0889 62.2363 38.7508 62.4269 38.3327C62.4537 38.2738 62.4794 38.2142 62.505 38.1544C62.6092 37.9104 62.663 37.6477 62.663 37.3824V28.5135L65.7163 27.0428V39.2143C65.0556 39.6547 64.5463 40.3146 64.2996 41.1182L62.5624 46.7789C62.3484 47.477 62.3542 48.2134 62.5795 48.9081L64.1905 53.8731C64.6499 55.2893 65.9586 56.2715 67.4466 56.3173C67.4565 56.3176 67.4663 56.3178 67.4762 56.3179L67.5252 56.3187C67.5355 56.3189 67.5457 56.3189 67.5561 56.3189C69.0189 56.3189 70.3107 55.4393 70.8471 54.0778L72.7098 49.3496C72.9972 48.6205 73.0335 47.805 72.812 47.0532L71.0752 41.1566C70.8332 40.3344 70.3195 39.6595 69.6471 39.212V25.1495L73.8876 23.1068C74.5676 22.7791 75 22.0911 75 21.3361V19.7708C75 19.016 74.5676 18.3278 73.8876 18.0001L38.3372 0.875599C37.798 0.616011 37.1702 0.616011 36.6312 0.875599L1.11241 17.9852C0.432385 18.3127 0 19.0009 0 19.7559V21.3512C0 22.106 0.432385 22.7941 1.11241 23.1217ZM67.5914 51.6186L66.3567 47.8133L67.6737 43.5217L69.0032 48.0348L67.5914 51.6186ZM58.7321 36.2548L38.8348 45.8394H36.1337L16.2366 36.2548V30.4074L36.6314 40.2316C36.9009 40.3615 37.1925 40.4263 37.4844 40.4263C37.7762 40.4263 38.0677 40.3615 38.3373 40.2316L58.7322 30.4075L58.7321 36.2548ZM37.4842 4.82776L70.1304 20.5535L60.1049 25.3829C60.0165 25.4109 59.9294 25.4437 59.8445 25.4845L37.4842 36.2557L15.1241 25.4845C15.0393 25.4437 14.9522 25.4109 14.864 25.3829L4.83831 20.5534L37.4842 4.82776Z" fill="#EB6FFF"/>
</svg>
