<svg width="75" height="75" viewBox="0 0 75 75" fill="none" xmlns="http://www.w3.org/2000/svg">
<path d="M50.3742 69.714H50.3745C50.3745 69.968 50.1679 70.1746 49.9138 70.1746H5.9131C5.65896 70.1746 5.45231 69.968 5.45231 69.714V5.28615C5.45231 5.03201 5.65896 4.82536 5.9131 4.82536H49.9138C50.1679 4.82536 50.3745 5.03201 50.3745 5.28615V9.77467L55.1957 5.12223C55.1085 2.28315 52.7735 0 49.9138 0H5.9131C2.99837 0 0.626953 2.37125 0.626953 5.28615V69.714C0.626953 72.6286 2.9982 75 5.91293 75H49.9136C52.8283 75 55.1996 72.6288 55.1996 69.714V47.0343L50.3742 51.8595V69.714Z" fill="#EB6FFF"/>
<path d="M9.05859 56.5767C9.05859 57.9092 10.1388 58.9894 11.4713 58.9894H19.9088C19.0114 57.5614 18.6387 55.8613 18.8739 54.1642H11.4713V54.1641C10.1388 54.1641 9.05859 55.2443 9.05859 56.5767Z" fill="#EB6FFF"/>
<path d="M21.4732 42.0554H11.4713C10.1388 42.0554 9.05859 43.1357 9.05859 44.4681C9.05859 45.8005 10.1388 46.8808 11.4713 46.8808H20.4279L21.4732 42.0554Z" fill="#EB6FFF"/>
<path d="M30.2027 29.9468H11.4713C10.1388 29.9468 9.05859 31.027 9.05859 32.3595C9.05859 33.6919 10.1388 34.7721 11.4713 34.7721H25.3773L30.2027 29.9468Z" fill="#EB6FFF"/>
<path d="M42.3113 17.8381H11.4713C10.1388 17.8381 9.05859 18.9184 9.05859 20.2508C9.05859 21.5832 10.1388 22.6635 11.4713 22.6635H37.4859L42.3113 17.8381Z" fill="#EB6FFF"/>
<path d="M71.527 9.87481C67.5769 5.80794 61.146 5.82726 57.206 9.76722C54.9823 11.9909 28.5613 38.412 27.3248 39.6486C27.006 39.9673 26.7721 40.3855 26.6727 40.8438L23.6845 54.6387C23.5134 55.4285 23.7482 56.267 24.3365 56.8555C24.921 57.4401 25.7582 57.6799 26.5534 57.5076L40.3482 54.5193C40.8022 54.4209 41.2302 54.181 41.5434 53.8673L71.4247 23.9859C75.3417 20.0692 75.3352 13.7936 71.527 9.87481ZM29.1937 51.9983L30.4522 46.1881L35.0038 50.7397L29.1937 51.9983ZM68.0126 20.5738L39.8373 48.7491L32.4428 41.3544L60.6179 13.1791C62.7257 11.0712 66.1739 11.1412 68.1925 13.3681C70.0449 15.4092 70.0037 18.5828 68.0126 20.5738Z" fill="#EB6FFF"/>
</svg>
