<svg width="75" height="69" viewBox="0 0 75 69" fill="none" xmlns="http://www.w3.org/2000/svg">
<path d="M66.9516 4.82467C63.2442 1.99831 59.1531 0.564941 54.792 0.564941C49.2893 0.564941 43.3454 2.91352 37.4999 7.37955C31.6543 2.91352 25.7104 0.564941 20.2077 0.564941C15.8466 0.564941 11.7555 1.99831 8.0481 4.82467C2.62373 8.96056 -0.0829283 14.1797 0.00193517 20.3368C0.293783 41.4205 34.5314 66.2986 35.9885 67.3473L37.4999 68.435L39.0112 67.3473C40.4687 66.2986 74.7063 41.4205 74.9978 20.3368C75.0826 14.1797 72.376 8.96056 66.9516 4.82467ZM53.0682 48.4069C46.7296 54.782 40.3335 59.8559 37.4999 62.0171C34.6662 59.8559 28.2701 54.7824 21.9316 48.4069C11.0721 37.4847 5.2783 27.7523 5.17619 20.2622C5.11479 15.7731 7.08079 12.0695 11.186 8.93952C13.9709 6.81586 17.0064 5.7392 20.2077 5.7392C26.2665 5.7392 32.0534 9.51183 35.8409 12.6766L37.4999 14.0627L39.1588 12.6766C42.9463 9.51183 48.7332 5.7392 54.792 5.7392C57.9934 5.7392 61.0288 6.81586 63.8137 8.93952C67.9189 12.0695 69.8849 15.7731 69.8235 20.2622C69.7214 27.7526 63.9272 37.4847 53.0682 48.4069Z" fill="#EB6FFF"/>
</svg>
